<?xml version="1.0" encoding="UTF-8" standalone="no"?>
<!DOCTYPE svg PUBLIC "-//W3C//DTD SVG 1.1//EN" "http://www.w3.org/Graphics/SVG/1.1/DTD/svg11.dtd">
<svg width="100%" height="100%" viewBox="0 0 112 116" version="1.1" xmlns="http://www.w3.org/2000/svg" xmlns:xlink="http://www.w3.org/1999/xlink" xml:space="preserve" xmlns:serif="http://www.serif.com/" style="fill-rule:evenodd;clip-rule:evenodd;stroke-linejoin:round;stroke-miterlimit:2;">
    <g id="head" transform="matrix(1.0402,0,0,1.04619,-769.742,-899.262)">
        <path d="M778.817,886.387C778.817,886.387 797.699,883.016 808.565,889.704C814.067,880.681 828.696,868.757 833.728,867.08C838.761,865.402 840.271,860.83 844.386,863.685C848.501,866.539 847.664,868.973 847.461,875.829C847.257,882.685 846.249,893.936 843.979,899.236C844.428,905.465 845.841,906.589 842.608,912.723C843.118,921.787 845.071,937.569 837.711,946.696C830.35,955.823 815.733,961.075 807.937,963.843C800.14,966.611 796.596,971.154 790.745,970.344C784.893,969.535 779.853,966.638 773.513,964.514C767.174,962.39 742.316,960.034 740.557,939.518C738.797,919.001 741.66,917.985 742.602,913.474C741.102,905.711 739.075,903.8 740.741,898.757C739.431,890.582 743.31,874.892 744.246,868.195C745.183,861.497 747.753,857.349 754.139,860.807C760.525,864.264 766.448,865.221 778.817,886.387ZM760.24,920.304C756.23,918.171 754.224,914.821 754.224,910.256C754.224,907.952 754.822,905.851 756.016,903.952C757.211,902.053 759.024,900.539 761.456,899.408C763.888,898.277 766.875,897.712 770.416,897.712C773.958,897.712 776.934,898.277 779.344,899.408C781.755,900.539 783.558,902.053 784.752,903.952C785.947,905.851 786.544,907.952 786.544,910.256C786.544,912.56 786,914.565 784.912,916.272C783.824,917.979 782.363,919.323 780.528,920.304C782.832,921.413 784.603,922.939 785.84,924.88C787.078,926.821 787.696,929.093 787.696,931.696C787.696,934.725 786.928,937.339 785.392,939.536C783.856,941.733 781.776,943.408 779.152,944.56C776.528,945.712 773.616,946.288 770.416,946.288C767.216,946.288 764.304,945.712 761.68,944.56C759.056,943.408 756.976,941.733 755.44,939.536C753.904,937.339 753.136,934.725 753.136,931.696C753.136,929.051 753.755,926.757 754.992,924.816C756.23,922.875 757.979,921.371 760.24,920.304ZM816.24,945.392L809.392,935.472L803.632,945.392L791.792,945.392L803.568,927.152L791.472,909.68L803.76,909.68L810.608,919.536L816.368,909.68L828.208,909.68L816.24,927.664L828.528,945.392L816.24,945.392ZM770.416,925.04C768.411,925.04 766.79,925.584 765.552,926.672C764.315,927.76 763.696,929.264 763.696,931.184C763.696,932.976 764.304,934.448 765.52,935.6C766.736,936.752 768.368,937.328 770.416,937.328C772.464,937.328 774.075,936.752 775.248,935.6C776.422,934.448 777.008,932.976 777.008,931.184C777.008,929.307 776.4,927.813 775.184,926.704C773.968,925.595 772.379,925.04 770.416,925.04ZM775.92,911.92C775.92,910.171 775.419,908.816 774.416,907.856C773.414,906.896 772.08,906.416 770.416,906.416C768.752,906.416 767.419,906.907 766.416,907.888C765.414,908.869 764.912,910.235 764.912,911.984C764.912,913.648 765.424,914.96 766.448,915.92C767.472,916.88 768.795,917.36 770.416,917.36C772.038,917.36 773.36,916.869 774.384,915.888C775.408,914.907 775.92,913.584 775.92,911.92Z" style="fill:rgb(0,107,102);"/>
    </g>
</svg>
