<?xml version="1.0" encoding="UTF-8" standalone="no"?>
<!DOCTYPE svg PUBLIC "-//W3C//DTD SVG 1.1//EN" "http://www.w3.org/Graphics/SVG/1.1/DTD/svg11.dtd">
<svg width="100%" height="100%" viewBox="0 0 116 116" version="1.1" xmlns="http://www.w3.org/2000/svg" xmlns:xlink="http://www.w3.org/1999/xlink" xml:space="preserve" xmlns:serif="http://www.serif.com/" style="fill-rule:evenodd;clip-rule:evenodd;stroke-linejoin:round;stroke-miterlimit:2;">
    <g transform="matrix(1,0,0,1,-1293,-850.78)">
        <path d="M1351,850.78C1383.03,850.78 1409,876.748 1409,908.78C1409,940.813 1383.03,966.78 1351,966.78C1318.97,966.78 1293,940.813 1293,908.78C1293,876.748 1318.97,850.78 1351,850.78ZM1392.5,909.124C1392.5,932.248 1373.81,950.993 1350.75,950.993C1327.69,950.993 1309,932.248 1309,909.124C1309,886 1327.69,867.254 1350.75,867.254C1373.81,867.254 1392.5,886 1392.5,909.124ZM1354.31,885.827C1354.31,886.88 1353.75,887.799 1352.91,888.293L1352.91,890.905L1357.09,891.456C1357.1,891.456 1357.11,891.456 1357.12,891.458L1357.11,891.431C1357.12,891.431 1357.13,891.431 1357.13,891.433C1357.14,891.435 1357.14,891.441 1357.16,891.454C1357.87,891.812 1364.92,898.021 1364.92,907.211C1364.92,916.133 1362.13,917.889 1360.88,918.672C1360.72,918.771 1360.59,918.854 1360.49,918.934C1360.36,919.023 1360.18,919.023 1360.07,918.911L1359.96,918.807C1359.29,918.146 1357.7,916.576 1354.4,916.109C1353.93,916.042 1353.46,915.997 1353,915.952L1352.91,915.946L1352.91,922.431L1360.74,922.431C1362.63,922.431 1364.18,921.086 1364.56,919.315C1364.59,919.181 1364.72,919.069 1364.87,919.069C1368.68,919.069 1372.44,918.209 1375.86,916.554L1376.55,916.222C1376.8,916.099 1377.08,916.135 1377.3,916.286C1377.49,916.426 1377.64,916.654 1377.64,916.895C1377.64,917.164 1377.48,917.432 1377.22,917.567C1374.08,919.083 1372.13,922.192 1370.98,925.478C1370.46,926.965 1369.79,928.381 1369,929.71C1368.48,930.575 1367.48,931.122 1366.57,930.702L1365.14,930.074C1364.07,929.603 1362.92,929.603 1361.85,930.074L1360.43,930.702C1359.36,931.172 1358.2,931.172 1357.13,930.702L1355.71,930.074C1354.64,929.603 1353.49,929.603 1352.42,930.074L1351,930.702C1349.93,931.172 1348.77,931.172 1347.7,930.702L1346.28,930.074C1345.21,929.603 1344.06,929.603 1342.99,930.074L1341.57,930.702C1340.5,931.172 1339.32,931.172 1338.28,930.702L1336.85,930.074C1335.79,929.603 1334.61,929.603 1333.56,930.074L1332.25,930.657C1331.63,930.931 1330.92,930.62 1330.55,930.049C1328.28,926.516 1327,922.35 1327,917.881C1327,917.567 1327,917.253 1327.02,916.939C1327.02,916.76 1327.18,916.626 1327.33,916.626L1339.39,916.626C1339.57,916.626 1339.7,916.76 1339.7,916.939L1339.7,918.486C1339.7,920.66 1341.46,922.431 1343.61,922.431L1350.08,922.431L1350.08,915.912C1348.61,915.982 1347.4,916.156 1346.68,916.266C1346.56,916.287 1346.45,916.229 1346.38,916.147L1346.37,916.156C1346.3,916.066 1346.28,915.954 1346.35,915.842C1346.9,914.654 1347.99,911.404 1347.79,904.389C1347.57,896.79 1344.92,891.859 1343.9,890.245C1343.75,890.021 1343.95,889.73 1344.21,889.752L1350.08,890.524L1350.08,888.279C1349.25,887.783 1348.7,886.871 1348.7,885.827C1348.7,884.258 1349.97,882.98 1351.53,882.98C1353.09,882.98 1354.31,884.258 1354.31,885.827ZM1344.39,913.754L1344.39,901.426C1344.39,901.314 1344.33,901.179 1344.21,901.134L1338.63,898.512C1338.48,898.445 1338.28,898.512 1338.21,898.691L1332.43,913.619C1332.34,913.843 1332.49,914.067 1332.72,914.067L1344.08,914.067C1344.26,914.067 1344.39,913.933 1344.39,913.754Z" style="fill:rgb(0,107,102);"/>
    </g>
</svg>
