<?xml version="1.0" encoding="UTF-8" standalone="no"?>
<!DOCTYPE svg PUBLIC "-//W3C//DTD SVG 1.1//EN" "http://www.w3.org/Graphics/SVG/1.1/DTD/svg11.dtd">
<svg width="100%" height="100%" viewBox="0 0 116 116" version="1.1" xmlns="http://www.w3.org/2000/svg" xmlns:xlink="http://www.w3.org/1999/xlink" xml:space="preserve" xmlns:serif="http://www.serif.com/" style="fill-rule:evenodd;clip-rule:evenodd;stroke-linejoin:round;stroke-miterlimit:2;">
    <g id="SakeSwap-Logo-One-Color" transform="matrix(0.116,0,0,0.116,1.58252e-12,0)">
        <path d="M500,0C775.958,0 1000,224.042 1000,500C1000,775.958 775.958,1000 500,1000C224.042,1000 -0,775.958 -0,500C-0,224.042 224.042,0 500,0ZM798.885,473.515C788.155,346.683 701.126,241.912 584.775,207.027L562.554,280.357C605.411,335.714 632.196,400 642.911,467.857C653.625,517.857 651.839,569.643 639.339,617.857C635.82,629.295 631.434,638.999 625.965,646.33L655.61,670.273C656.376,659.889 659.697,646.482 671.732,646.482C691.375,646.482 675.304,682.196 671.732,687.554C670.371,688.914 667.45,691.125 665.589,691.125C663.804,691.125 661.018,691.125 659.232,689.339L617.967,654.677C614.194,657.635 610.023,659.689 605.411,660.714C588.971,664.824 570.166,668.343 550.698,670.93L541.031,693.026C542.952,693.972 545.176,695.801 549.375,700C558.304,708.929 551.161,716.071 538.661,717.857C526.161,719.643 527.946,708.929 527.946,708.929C527.946,708.929 520.804,717.857 519.018,707.143C517.657,698.975 526.672,693.921 531.036,691.979L531.036,691.893L539.337,672.325C531.481,674.479 511.908,675 503.625,675C480.025,675 457.205,672.661 434.647,668.497L439.321,688.946C439.321,689.374 442.232,692.857 442.232,692.857C447.589,698.214 447.589,710.714 442.232,710.714C436.875,710.714 435.089,705.357 435.089,705.357C435.089,705.357 426.161,717.857 417.232,712.5C408.304,707.143 413.661,698.214 426.161,691.071C427.575,690.364 428.896,689.875 430.124,689.558L424.872,666.577C416.584,664.852 408.319,662.889 400.054,660.714C395.877,659.521 391.9,657.132 388.057,653.547L338.475,673.617C338.243,674.401 337.779,675.222 336.875,676.446C333.876,680.51 326.161,681.804 322.589,678.232C318.804,674.446 299.375,640.732 317.232,637.161C329.809,634.645 335.299,651.617 337.446,661.873L380.334,644.513C375.498,637.677 370.811,628.792 366.125,617.857C353.625,567.857 351.839,517.857 362.554,467.857C375.054,398.214 403.625,333.929 444.696,278.571L427.657,203.597C302.147,235.284 207.734,347.47 200.451,483.14C260.212,484.711 291.357,501.21 295,512C298.106,521.198 295.365,583.248 277.09,630.617C288.634,626.666 297.69,619.862 305.411,609.054L305.245,608.928C298.284,603.622 299.302,598.883 303.625,599.875C305.268,600.252 305.632,600.225 307.428,600.785C308.099,599.581 310.378,593.081 316.125,594.518C316.125,594.518 321.482,596.304 319.696,601.661C318.355,605.686 314.996,611.728 310.38,611.453C301.996,624.57 290.513,633.072 274.505,636.957C270.64,645.919 266.163,654.112 261,661C257.962,665.053 255.002,668.688 252.114,671.95C306.156,752.468 397.058,805.357 500,805.357C606.157,805.357 699.51,749.113 752.839,664.334C741.956,653.233 733.636,639.398 727.314,624.257C713.327,620.403 702.276,613.224 694.157,598.736C689.071,599.536 685.357,594.393 683.929,591.536C682.143,587.964 687.5,584.393 687.5,584.393C694.643,582.607 696.429,589.75 696.429,589.75C696.429,589.75 696.429,584.393 700,586.179C703.505,587.931 705.29,591.404 698.601,596.597C704.26,605.522 712.827,611.492 723.573,614.51C709.504,574.549 707.733,535.15 708.846,506C709.119,498.848 718.315,479.28 798.885,473.515ZM136.566,687.193C138.724,688.591 140.898,689.869 143.072,691.034C139.865,693.023 136.625,695.821 136.625,699.429C136.625,703 139.735,707.23 148.125,711.929C148.275,712.013 149.728,712.878 150.196,713.714C152.664,718.121 151.55,721.728 149.196,722.643C146.625,723.643 125.982,729.786 127.768,719.071C128.605,714.047 132.976,712.165 137.384,711.581C131.932,707.303 129.482,702.473 129.482,697.643C129.482,693.204 133.014,689.647 136.566,687.193ZM219.215,696.416C217.266,697.144 215.346,697.745 213.452,698.242C213.901,702.539 216.337,706.79 221.151,710.607C216.964,711.054 212.554,712.839 211.661,718.196C209.875,728.911 230.518,722.768 233.089,721.768C235.443,720.853 237.278,716.757 234.089,712.839C232.679,711.106 231.48,711.185 231.232,711.054C222.729,706.562 218.732,702.125 218.732,698.554C218.732,697.806 218.906,697.094 219.215,696.416ZM768.886,677.369C765.282,679.826 761.643,683.422 761.643,687.929C761.643,692.759 764.092,697.589 769.544,701.867C765.137,702.45 760.766,704.333 759.929,709.357C758.143,720.071 777.87,713.7 781.357,712.929C784.914,712.142 785.272,706.689 785.071,705.357C784.806,703.591 783.071,702.214 781.286,702.214C772.357,698.643 768.786,693.286 768.786,689.714C768.786,686.003 772.214,683.149 775.509,681.151C773.228,679.982 771.022,678.72 768.886,677.369ZM852.908,684.492C850.521,685.504 848.059,686.409 845.519,687.198C845.567,691.98 848.022,696.756 853.419,700.992C849.012,701.575 844.641,703.458 843.804,708.482C842.018,719.196 862.084,713.74 865.232,712.054C868.758,710.165 868.871,703.943 863.312,701.314C854.657,697.221 850.875,692.402 850.875,688.839C850.875,687.229 851.682,685.78 852.908,684.492ZM87.453,531.045C95.599,635.443 126.533,689.579 189.714,690.589C258.348,691.687 284.857,597.589 285.857,530.804C272.857,537.089 253.857,547.589 193.714,548.589C112.374,549.942 87.706,531.121 87.361,529.829L87.358,529.814L87.453,531.045ZM721,521C721,521 756.224,539.385 818,539.141C846.061,539.03 887.395,535.868 917,521C912.575,614.522 878.931,683.755 818,680C757.069,676.245 725.359,624.644 721,521ZM192.357,665.482C198.571,665.482 192,670.839 186.429,670.839C180.286,670.839 173.929,665.482 181.071,665.482L192.357,665.482ZM555.134,660.792C572.341,658.331 589.526,654.65 607.196,650C616.125,648.214 625.054,635.714 632.196,614.286C644.696,566.071 646.482,517.857 635.768,469.643C623.268,403.571 594.696,339.286 555.411,285.714C553.625,283.929 554.25,280.143 556.036,276.357L587.184,170.688C582.794,172.068 553.625,178.786 507.196,178.786C467.436,178.786 432.488,171.357 432.32,171.294L458.982,280.357C458.982,282.143 458.982,283.929 457.196,285.714C416.125,339.286 387.554,403.571 376.839,469.643C367.911,517.857 367.911,567.857 380.411,614.286C387.554,633.929 396.482,648.214 405.411,650C410.992,651.469 416.525,652.841 422.021,654.107L416.107,628.232C415.107,625.446 416.813,623.349 419.679,622.875C423.394,622.26 424.036,624.661 425.036,626.446L431.852,656.266C456.357,661.374 480.399,664.286 505.411,664.286C510.831,664.286 533.714,663.272 543.61,662.253L556.036,632.964C556.821,630.179 561.564,630.417 563.179,631.179C566.964,632.964 566.536,634.75 564.964,638.321L555.134,660.792ZM185.929,658.339C180.571,658.339 175.214,645.839 175.214,631.554C175.214,617.268 180.571,604.768 185.929,604.768C191.286,604.768 196.643,617.268 196.643,631.554C196.643,645.839 191.286,658.339 185.929,658.339ZM178.257,636.668C178.257,645.618 182.093,653.29 185.929,653.29C189.764,653.29 193.6,645.618 193.6,636.668C192.322,634.111 189.764,631.554 185.929,631.554C183.371,631.554 179.535,634.111 178.257,636.668ZM840.304,617.964C826.018,619.75 811.732,619.75 797.446,616.179C797.446,616.179 790.304,650.107 817.089,650.107C827.804,650.107 840.518,643.964 840.304,632.25L840.304,617.964ZM816.649,647.321C808.238,647.107 801.826,642.964 800.144,632.25C805.191,626.893 808.238,625.107 820.013,625.107C826.742,625.107 831.471,628.679 836.518,634.036C834.836,642.964 826.742,647.579 816.649,647.321ZM864.286,646.589C867.857,646.589 871.429,644.804 871.429,643.018C871.429,641.232 867.857,639.446 864.286,639.446C860.714,639.446 857.143,641.232 857.143,643.018C857.143,644.804 860.714,646.589 864.286,646.589ZM826.018,642.964C826.018,642.964 824.232,644.75 818.875,644.75C813.518,644.75 808.161,644.75 809.946,642.964C811.732,641.179 813.518,641.179 817.089,641.179L824.232,641.179C824.232,641.179 826.018,641.179 826.018,642.964ZM134.857,642.268C131.286,642.268 129.5,640.482 129.5,638.696C129.5,636.911 131.286,635.125 134.857,635.125C138.429,635.125 140.214,636.911 140.214,638.696C140.214,640.482 138.429,642.268 134.857,642.268ZM232.857,642.268C229.286,642.268 227.5,640.482 227.5,638.696C227.5,636.911 229.286,635.125 232.857,635.125C236.429,635.125 238.214,636.911 238.214,638.696C238.214,640.482 236.429,642.268 232.857,642.268ZM773.214,641.232C776.786,641.232 780.357,639.446 780.357,637.661C780.357,635.875 776.786,632.304 771.429,632.304C766.071,632.304 766.071,634.089 766.071,637.661C766.071,641.232 769.643,641.232 773.214,641.232ZM95.124,627.259C95.92,629.706 96.745,632.215 97.598,634.786C82.695,632.599 67.85,623.78 59.093,608.271C55.514,607.255 53.318,603.282 51.786,601.25C49.303,597.957 53.289,594.624 55.357,594.107C62.5,592.321 64.286,599.464 64.286,599.464C64.286,599.464 64.286,594.107 67.857,595.893C71.429,597.679 73.214,601.25 66.071,606.607C65.502,607.034 64.944,607.382 64.398,607.658C70.968,618.312 81.612,624.845 95.124,627.259ZM905.186,627.582C922.214,623.81 934.245,614.991 942.911,601.125L942.911,600.976C947.327,600.722 950.535,595.858 951.839,591.946C953.625,586.589 948.268,584.804 948.268,584.804C942.521,583.367 940.242,588.866 939.57,591.07C939.775,591.511 939.407,591.606 939.57,591.07C939.361,590.618 938.48,590.161 935.768,590.161C930.411,590.161 930.411,593.732 937.554,599.089L937.565,599.098C937.558,599.175 937.554,599.255 937.554,599.339C929.529,610.574 920.061,617.481 907.855,621.357C907.001,623.45 906.113,625.524 905.186,627.582ZM876.911,625.268C873.005,625.245 871.945,613.377 866.196,614.554C859.054,614.554 857.268,621.696 857.268,623.482C857.268,625.268 855.482,625.268 853.696,625.268C851.125,625.268 850.125,621.696 850.125,621.696C851.911,614.554 857.268,609.196 864.411,609.196C871.554,609.196 877.459,612.863 878.911,619.857C879.696,623.643 879.911,625.285 876.911,625.268ZM238.875,623.821C240.661,623.821 240.661,622.036 240.661,620.25C240.661,614.893 235.304,605.964 228.161,605.964C221.018,605.964 214.924,611.177 213.875,618.464C213.684,619.789 213.712,622.036 215.661,622.036C217.446,622.036 218.446,622.036 219.232,620.25C219.232,620.25 221.018,611.321 228.161,611.321C235.304,611.321 237.089,620.25 237.089,620.25C237.089,623.821 238.875,623.821 238.875,623.821ZM125.714,623.054C127.5,623.054 127.5,621.268 127.5,621.268C127.5,621.268 129.286,612.339 136.429,612.339C143.571,612.339 145.357,621.268 145.357,621.268C145.357,623.054 147.143,623.054 148.929,623.054C150.714,623.054 150.714,621.268 150.714,619.482C150.714,612.339 145.357,606.982 138.214,606.982C131.071,606.982 123.929,614.125 123.929,621.268C123.929,621.268 123.929,623.054 125.714,623.054ZM760.375,621.643C758.589,621.643 758.589,619.857 758.589,618.071C758.589,612.714 763.946,605.571 771.089,605.571C778.232,605.571 784.375,610.639 785.375,616.286C785.512,617.059 784.72,619.153 783.589,619.857C782.039,620.822 780.565,620.082 780.018,618.071C780.018,618.071 778.232,610.929 771.089,610.929C763.946,610.929 764.351,615.296 763.161,618.071C762.368,619.92 762.161,621.643 760.375,621.643ZM186.026,606.304C183.704,606.304 182.544,608.72 181.383,612.344C184.865,613.552 187.348,613.552 190.831,612.344C190.509,609.72 188.348,606.304 186.026,606.304ZM581.518,592.857C586.875,592.857 592.232,589.286 592.232,585.714C592.232,582.143 586.875,580.357 581.518,580.357C576.161,580.357 570.804,583.929 570.804,587.5C570.804,591.071 576.161,592.857 581.518,592.857ZM431.518,582.143C436.875,582.143 442.232,578.571 442.232,575C442.232,571.429 436.875,569.643 431.518,569.643C426.161,569.643 420.804,573.214 420.804,576.786C420.804,580.357 424.375,582.143 431.518,582.143ZM488.054,553.929C476.268,551.929 473.768,545 473.768,537.857C473.768,536.071 475.554,534.286 477.339,534.286C479.125,534.286 480.911,536.071 480.911,539.643C480.911,541.429 482.696,545 486.268,545C490.839,545 495.196,545 500.554,537.857C502.339,534.286 504.125,534.286 505.911,534.286C507.696,534.286 509.482,536.071 509.482,537.857C509.482,539.643 513.054,545 518.411,546.786C523.768,548.571 527.339,545 530.911,539.643C530.911,537.857 534.482,536.071 536.268,537.857C538.054,537.857 539.839,541.429 538.054,543.214C534.268,553.143 528.339,558.286 518.411,557.5C512.965,557.069 505.911,550.357 504.125,546.786C498.768,552.143 493.335,554.825 488.054,553.929ZM561.929,529.589C563.714,529.589 565.5,531.375 565.5,533.161C565.5,533.161 567.286,547.446 579.786,547.446C592.286,545.661 594.071,533.161 594.071,533.161C594.071,531.375 595.857,529.589 599.429,529.589C601.214,529.589 603,531.375 603,533.161C601.214,545.661 592.286,554.589 581.571,554.589C570.857,554.589 560.143,545.661 558.357,533.161C558.357,531.375 560.143,529.589 561.929,529.589ZM447.036,522.661C448.821,522.661 450.607,524.446 450.607,526.232C450.607,536.946 441.679,547.661 430.964,547.661C418.464,547.661 409.536,540.518 407.75,529.804C407.75,528.018 407.75,526.232 411.321,524.446C413.107,524.446 414.893,524.446 416.679,528.018C416.679,528.018 420.25,540.518 430.964,540.518C441.679,540.518 443.464,526.232 443.464,526.232C443.464,524.446 445.25,522.661 447.036,522.661ZM227,497L227,535C227,535 184.031,539.081 154,536C123.969,532.919 88.169,525.771 88,516C87.805,504.723 123.791,498.778 151,496C180.082,493.03 227,497 227,497ZM859,487L859,525C804.927,532.253 719.388,520.781 720,506C720.765,487.504 820.617,482.159 859,487ZM863.312,487C863.312,487 917.789,493.099 917.648,505C917.557,512.609 901.855,518 901.855,518C901.855,518 927.481,515.802 928.002,506C928.763,491.689 897.917,487.21 863.312,487ZM519.696,147.981C515.519,147.885 511.347,147.887 507.196,148C483.486,148.647 429.72,151.018 429.173,158.808C428.722,165.237 466.342,169.304 507.196,169.071C509.742,169.057 518.006,168.879 519.696,168.803L519.696,147.981ZM599.429,158.292C599.073,152.122 579.454,145.366 521.395,147.412C575.955,149.06 588.754,155.148 591.135,158.808C591.41,159.23 591.506,159.633 591.458,160.011C591.119,162.686 581.423,164.36 570.633,165.785C589.748,166.155 599.654,162.2 599.429,158.292Z" style="fill:rgb(33,106,101);"/>
    </g>
</svg>
